P2
20 12 6 6 6 6 6 6 6 6 6 6 6 6 6 6 6 6 6 6 6 6 6  6 6 6 6 6 6 6 6 6 6 6 6 6 6 6 6 6 6 6 6  6 6 6 6 6 6 6 6 6 6 6 6 6 6 6 6 6 6 6 6  6 6 6 6 6 6 6 6 6 6 6 6 6 6 6 6 6 6 6 6  0 0 0 0 0 0 0 0 6 6 6 6 1 1 1 1 6 6 6 6  0 0 0 0 0 0 0 0 6 6 6 6 1 1 1 1 6 6 6 6  0 0 0 0 0 0 0 0 6 6 6 6 1 1 1 1 6 6 6 6  0 0 0 0 0 0 0 0 6 6 6 6 1 1 1 1 6 6 6 6  0 0 0 0 0 0 0 0 6 6 6 6 6 6 6 6 6 6 6 6  0 0 0 0 0 0 0 0 6 6 6 6 6 6 6 6 6 6 6 6  0 0 0 0 0 0 0 0 6 6 6 6 6 6 6 6 6 6 6 6  0 0 0 0 0 0 0 0 6 6 6 6 6 6 6 6 6 6 6 6 
