P2
# Shows the word “FEEP” (from the PGM man page)
24 7	    # twenty-four wide, seven high
150          # sixteen levels of gray
0  0  0  0  0  0  0  0  0  0  0  0  0  0  0  0  0  0  0  0  0  0  0  0
0  3  3  3  3  0  0  7  7  7  7  0  0 11 11 11 11  0  0 150 150 105 150  0
0  3  0  0  0  0  0  7  0  0  0  0  0 11  0  0  0  0  0 150  0  0 150  0
0  3  3  3  0  0  0  7  7  7  0  0  0 11 11 11  0  0  0 150 150 150 105  0
0  3  0  0  0  0  0  7  0  0  0  0  0 11  0  0  0  0  0 105  0  0  0  0
0  3  0  0  0  0  0  7  7  7  7  0  0 11 11 11 11  0  0 105  0  0  0  0
0  0  0  0  0  0  0  0  0  0  0  0  0  0  0  0  0  0  0  0  0  0  0  0
# this comment is not required
