P2
10 7
5
5 5 5 5 5 5 5 5 5 5
5 0 5 5 0 5 0 5 0 5
5 0 5 5 0 5 5 5 0 5
5 0 0 0 0 5 0 5 0 5
5 0 5 5 0 5 0 5 5 5
5 0 5 5 0 5 0 5 0 5
5 5 5 5 5 5 5 5 5 5

